<?xml version="1.0" standalone="no"?>
<!DOCTYPE svg PUBLIC "-//W3C//DTD SVG 20010904//EN"
 "http://www.w3.org/TR/2001/REC-SVG-20010904/DTD/svg10.dtd">
<svg version="1.0" xmlns="http://www.w3.org/2000/svg"
 width="1024.000000pt" height="1024.000000pt" viewBox="0 0 1024.000000 1024.000000"
 preserveAspectRatio="xMidYMid meet">
<metadata>
Created by potrace 1.14, written by Peter Selinger 2001-2017
</metadata>
<g transform="translate(0.000000,1024.000000) scale(0.100000,-0.100000)"
fill="#000000" stroke="none">
<path d="M0 5120 l0 -5120 1901 0 c1800 0 1903 1 1915 18 7 9 14 25 14 35 0 9
4 25 9 35 5 9 19 44 31 77 12 33 26 68 31 77 5 10 9 27 9 37 0 11 4 23 10 26
5 3 10 13 10 22 0 22 42 113 52 113 7 0 71 -23 113 -40 11 -5 49 -18 85 -30
36 -12 74 -25 85 -30 11 -4 36 -13 55 -20 19 -7 44 -16 55 -20 51 -21 115 -44
169 -61 33 -11 64 -23 70 -27 6 -5 31 -14 56 -21 25 -7 50 -16 55 -20 6 -4 30
-13 55 -21 25 -7 49 -17 55 -22 5 -4 19 -8 31 -8 13 0 26 -4 29 -10 3 -5 15
-10 27 -10 17 0 19 -5 16 -32 -3 -18 -8 -41 -13 -50 -7 -17 22 -18 534 -18
l541 0 0 24 c0 14 4 27 8 30 4 3 14 28 22 56 8 28 18 53 22 56 4 3 8 15 8 28
0 12 4 26 9 32 10 10 61 147 68 184 3 14 9 30 13 35 4 6 20 46 35 90 16 44 31
85 35 90 4 6 10 22 14 36 8 38 32 43 93 19 29 -11 79 -29 111 -41 60 -22 124
-46 157 -60 11 -4 38 -13 60 -20 22 -6 45 -15 50 -19 6 -3 30 -13 55 -20 25
-7 50 -16 55 -20 6 -4 30 -12 55 -20 25 -7 49 -17 55 -22 5 -4 17 -8 27 -8 18
0 28 -4 75 -28 13 -7 30 -12 38 -12 15 0 25 -4 72 -28 13 -7 31 -12 42 -12 43
0 46 -36 10 -117 -10 -24 -19 -51 -19 -61 0 -10 -4 -22 -8 -27 -5 -6 -15 -30
-22 -55 -8 -25 -20 -54 -27 -65 -7 -11 -13 -25 -13 -32 0 -11 303 -13 1570
-13 l1570 0 0 5120 0 5120 -1877 -2 -1878 -3 -21 -60 c-29 -83 -34 -98 -45
-117 -5 -10 -9 -25 -9 -33 0 -8 -4 -23 -9 -33 -5 -9 -19 -44 -31 -77 -12 -33
-26 -68 -31 -77 -5 -10 -9 -27 -9 -37 0 -11 -4 -23 -10 -26 -6 -3 -10 -16 -10
-29 0 -12 -4 -26 -9 -32 -5 -5 -19 -38 -31 -74 -34 -98 -109 -302 -120 -325
-5 -11 -16 -40 -24 -65 -29 -87 -53 -150 -59 -157 -4 -3 -7 -17 -7 -29 0 -13
-4 -26 -10 -29 -5 -3 -10 -14 -10 -23 0 -9 -7 -25 -14 -34 -14 -20 -23 -18
-141 27 -102 38 -207 76 -230 82 -11 2 -33 11 -50 18 -48 22 -155 61 -272 101
-59 20 -112 40 -118 45 -5 5 -17 9 -27 9 -10 0 -26 4 -36 9 -62 32 -74 35 -90
25 -9 -6 -19 -22 -20 -35 -2 -13 -7 -28 -11 -34 -4 -5 -14 -30 -21 -55 -7 -25
-17 -49 -20 -55 -4 -5 -29 -71 -55 -145 -27 -74 -52 -139 -57 -144 -4 -6 -8
-18 -8 -28 0 -10 -9 -37 -19 -61 -11 -23 -25 -60 -32 -82 -7 -22 -17 -44 -21
-49 -4 -6 -8 -17 -8 -27 0 -18 -47 -145 -72 -192 -5 -11 -7 -21 -5 -23 7 -8
201 -81 317 -121 58 -19 109 -39 115 -44 5 -5 17 -9 27 -9 10 0 26 -4 36 -9
29 -15 65 -29 107 -42 22 -7 44 -17 50 -21 5 -4 18 -8 30 -8 12 0 25 -4 30 -8
6 -5 30 -15 55 -22 25 -8 50 -16 55 -20 6 -3 28 -12 50 -19 84 -26 97 -39 76
-79 -5 -9 -19 -44 -31 -77 -12 -33 -26 -68 -31 -77 -5 -10 -9 -26 -9 -36 0
-10 -3 -22 -7 -25 -6 -7 -30 -70 -59 -157 -8 -25 -19 -54 -24 -65 -15 -36 -42
-109 -60 -165 -22 -65 -96 -267 -109 -295 -5 -11 -15 -38 -22 -60 -6 -22 -15
-44 -19 -50 -3 -5 -13 -30 -20 -55 -7 -25 -16 -49 -20 -55 -4 -5 -12 -30 -20
-55 -7 -25 -17 -49 -22 -54 -4 -6 -8 -19 -8 -31 0 -12 -4 -25 -8 -30 -4 -6
-14 -28 -21 -50 -13 -42 -27 -78 -42 -107 -5 -10 -9 -26 -9 -36 0 -10 -4 -22
-8 -27 -4 -6 -14 -28 -21 -50 -13 -41 -23 -68 -42 -109 -11 -22 -15 -23 -113
-23 -334 0 -562 -206 -583 -529 -8 -121 26 -275 96 -428 17 -38 31 -74 31 -80
-1 -6 -29 -29 -62 -51 -34 -22 -98 -76 -142 -121 -124 -124 -173 -220 -197
-385 -11 -73 -10 -97 5 -179 21 -114 69 -222 126 -284 24 -26 40 -49 36 -53
-8 -8 -89 18 -148 48 -10 5 -26 9 -36 9 -10 0 -22 3 -25 7 -7 7 -159 62 -195
70 -12 3 -25 9 -28 14 -3 5 -14 9 -25 9 -10 0 -27 4 -37 9 -9 5 -44 19 -77 31
-187 68 -297 110 -317 121 -37 19 -54 11 -68 -33 -8 -24 -17 -47 -20 -53 -4
-5 -19 -46 -35 -90 -15 -44 -31 -84 -35 -90 -4 -5 -10 -21 -13 -35 -7 -37 -58
-174 -68 -185 -5 -5 -9 -18 -9 -30 0 -12 -4 -25 -8 -30 -4 -6 -14 -28 -21 -50
-7 -22 -16 -49 -21 -60 -5 -11 -16 -40 -24 -65 -29 -87 -53 -150 -59 -157 -4
-3 -7 -17 -7 -30 0 -37 -25 -38 -118 -2 -48 19 -91 34 -97 34 -5 0 -15 3 -20
7 -6 4 -47 19 -90 34 -44 15 -84 31 -90 35 -5 5 -17 9 -27 9 -10 0 -26 4 -36
9 -9 5 -44 19 -77 31 -33 12 -68 26 -77 31 -10 5 -26 9 -36 9 -10 0 -22 4 -28
8 -5 5 -29 15 -54 22 -25 8 -49 16 -55 20 -5 4 -30 13 -55 20 -25 7 -49 16
-55 20 -5 3 -28 12 -50 19 -22 7 -49 16 -60 21 -11 5 -47 18 -80 30 -33 12
-96 35 -140 51 -44 17 -88 32 -98 34 -9 2 -21 7 -27 10 -11 7 -150 58 -220 81
-25 8 -54 19 -65 24 -11 5 -38 14 -60 21 -22 7 -44 17 -49 21 -6 4 -18 8 -28
8 -10 0 -26 4 -36 9 -27 14 -65 29 -89 36 -11 3 -24 13 -27 22 -4 9 14 70 40
137 25 67 55 146 66 176 11 30 24 63 29 72 5 10 9 25 9 33 0 8 4 23 9 33 5 9
19 44 31 77 12 33 26 68 31 77 5 10 9 27 9 37 0 11 4 22 8 25 4 3 14 28 22 56
8 28 18 53 22 56 4 3 8 14 8 25 0 10 4 28 10 39 5 11 14 29 20 40 5 11 10 27
10 35 0 8 5 24 10 35 6 11 15 29 20 40 5 11 10 27 10 35 0 8 4 23 10 33 5 9
39 98 75 197 36 99 69 189 74 200 6 11 15 38 22 60 7 22 17 44 21 50 4 5 8 17
8 27 0 11 9 38 20 60 11 23 20 49 20 58 0 9 4 20 8 25 4 6 14 28 21 50 13 42
27 78 42 107 5 10 9 26 9 36 0 10 4 22 8 27 5 6 15 30 22 55 8 25 16 50 20 55
3 6 12 28 19 50 7 22 16 49 21 60 5 11 23 61 40 110 17 50 42 117 55 150 12
33 32 87 44 120 13 33 27 68 32 77 5 10 9 26 9 36 0 10 3 22 7 25 6 7 30 70
59 157 8 25 19 54 24 65 5 11 14 38 21 60 7 22 17 44 21 50 4 5 8 17 8 27 0
10 4 26 9 36 15 29 29 65 42 107 7 22 17 44 21 50 4 5 8 18 8 30 0 12 4 25 9
31 4 5 22 52 40 104 18 52 36 103 41 112 6 10 19 46 31 80 12 35 27 77 34 93
8 17 28 73 46 125 17 52 36 99 40 105 5 5 9 18 9 30 0 12 4 25 8 31 4 5 14 27
21 49 13 42 27 78 42 107 5 10 9 26 9 36 0 10 4 22 8 28 4 5 14 27 21 49 7 22
16 49 21 60 5 11 16 40 24 65 29 87 53 150 59 157 4 3 7 17 7 29 0 13 4 25 9
28 5 3 11 16 14 28 3 13 22 66 42 118 19 52 43 115 51 140 8 25 19 54 24 65 5
11 14 38 21 60 7 22 16 45 19 50 4 6 13 30 20 55 7 25 16 50 20 55 4 6 12 30
20 55 7 25 17 49 22 55 4 5 8 17 8 27 0 10 4 26 9 36 15 29 29 65 42 107 7 22
17 44 21 50 4 5 8 18 8 30 0 12 4 25 9 30 4 6 23 53 40 105 18 52 38 109 45
125 7 17 23 59 36 95 13 36 27 69 32 75 32 36 56 35 -1592 35 l-1600 0 0
-5120z m6506 2031 c46 -18 70 -27 222 -82 60 -22 124 -46 157 -60 11 -4 38
-13 60 -20 22 -6 45 -15 50 -19 6 -3 30 -12 55 -20 25 -7 49 -17 54 -22 6 -4
18 -8 28 -8 10 0 26 -4 36 -9 29 -15 65 -29 107 -42 22 -7 44 -17 50 -21 5 -4
18 -8 30 -8 12 0 25 -4 30 -8 6 -5 30 -15 55 -22 25 -8 50 -16 55 -20 6 -4 30
-13 55 -20 25 -7 50 -16 55 -20 6 -3 28 -12 50 -19 22 -7 49 -16 60 -21 11 -5
40 -16 65 -24 42 -14 110 -39 275 -101 39 -14 90 -33 115 -41 25 -8 54 -19 65
-23 11 -5 47 -18 80 -30 33 -12 68 -27 77 -32 10 -5 27 -9 37 -9 11 0 23 -4
26 -10 3 -5 17 -10 30 -10 13 0 26 -4 29 -8 3 -4 28 -14 56 -22 28 -8 53 -18
56 -22 3 -4 14 -8 25 -8 10 0 27 -4 37 -9 29 -15 65 -29 107 -42 22 -7 44 -17
49 -21 6 -4 18 -8 28 -8 10 0 26 -4 36 -9 9 -5 44 -19 77 -31 33 -12 68 -26
77 -31 10 -5 26 -9 36 -9 10 0 23 -5 29 -11 6 -6 17 -11 24 -12 15 -3 125 -44
149 -56 19 -10 25 -38 12 -65 -6 -11 -20 -48 -32 -81 -12 -33 -26 -68 -31 -77
-5 -10 -9 -26 -9 -35 0 -10 -7 -27 -15 -37 -8 -10 -12 -23 -9 -28 3 -5 2 -14
-3 -21 -5 -7 -18 -34 -28 -62 -10 -27 -22 -54 -26 -60 -5 -5 -9 -18 -9 -30 0
-12 -4 -25 -8 -30 -4 -6 -14 -28 -21 -50 -13 -42 -27 -78 -42 -107 -5 -10 -9
-27 -9 -37 0 -11 -4 -23 -10 -26 -5 -3 -10 -15 -10 -26 0 -10 -4 -27 -9 -37
-15 -29 -29 -65 -42 -107 -19 -58 -26 -65 -62 -58 -18 3 -36 9 -42 13 -5 4
-53 22 -105 40 -52 17 -114 40 -137 51 -24 10 -46 19 -50 19 -5 0 -21 7 -37
15 -15 8 -31 13 -36 10 -4 -2 -16 2 -26 10 -10 8 -27 15 -37 15 -9 0 -25 4
-35 9 -29 15 -65 29 -107 42 -22 7 -44 17 -49 21 -6 4 -18 8 -28 8 -11 0 -38
9 -60 20 -23 11 -50 20 -59 20 -10 0 -21 5 -24 10 -3 6 -15 10 -26 10 -10 0
-27 4 -37 9 -9 5 -30 14 -47 21 -16 7 -38 16 -47 21 -10 5 -26 9 -36 9 -10 0
-22 4 -27 8 -6 5 -30 15 -55 22 -25 8 -49 16 -55 20 -5 4 -30 13 -55 20 -25 7
-49 16 -55 20 -5 4 -30 13 -55 20 -25 7 -49 16 -55 20 -5 3 -28 12 -50 19 -22
7 -49 16 -60 21 -11 5 -65 25 -120 45 -55 20 -108 40 -117 45 -10 6 -26 10
-36 10 -10 0 -22 4 -28 8 -18 15 -86 34 -94 26 -9 -10 -35 -74 -70 -169 -12
-33 -26 -68 -31 -77 -5 -10 -9 -26 -9 -36 0 -10 -4 -22 -8 -28 -5 -5 -15 -29
-22 -54 -8 -25 -16 -49 -20 -55 -4 -5 -12 -30 -20 -55 -7 -25 -17 -49 -22 -54
-4 -6 -8 -18 -8 -28 0 -10 -4 -26 -9 -36 -15 -29 -29 -65 -42 -107 -7 -22 -17
-44 -21 -49 -4 -6 -8 -19 -8 -31 0 -12 -4 -25 -8 -31 -4 -5 -14 -27 -21 -49
-7 -22 -16 -49 -21 -60 -4 -11 -18 -47 -30 -80 -23 -63 -66 -176 -80 -210 -5
-11 -14 -38 -21 -60 -6 -22 -15 -44 -19 -50 -3 -5 -12 -30 -20 -55 -7 -25 -17
-49 -22 -54 -4 -6 -8 -18 -8 -28 0 -10 -4 -27 -10 -38 -5 -11 -14 -29 -20 -40
-5 -11 -10 -27 -10 -35 0 -8 -4 -24 -10 -35 -5 -11 -14 -29 -20 -40 -5 -11
-10 -26 -10 -34 0 -15 -49 -145 -71 -188 -14 -27 -11 -38 10 -38 11 0 23 -4
26 -10 3 -5 16 -10 29 -10 12 0 26 -4 32 -8 5 -4 27 -14 49 -21 42 -13 78 -27
107 -42 10 -5 26 -9 36 -9 10 0 22 -4 28 -8 5 -5 29 -15 54 -22 25 -8 50 -16
55 -20 6 -4 30 -12 55 -20 25 -7 49 -17 54 -22 6 -4 18 -8 28 -8 10 0 26 -4
36 -9 9 -5 42 -18 72 -29 283 -103 290 -107 273 -144 -6 -13 -21 -50 -33 -83
-12 -33 -26 -68 -31 -77 -5 -10 -9 -26 -9 -36 0 -10 -3 -22 -7 -25 -6 -7 -30
-70 -59 -157 -8 -25 -19 -54 -24 -65 -4 -11 -18 -47 -30 -80 -24 -66 -48 -129
-61 -160 -4 -11 -11 -31 -14 -45 -4 -14 -13 -38 -20 -55 -7 -16 -18 -46 -25
-65 -22 -65 -33 -80 -55 -80 -12 0 -25 3 -28 7 -4 3 -42 18 -84 33 -43 15
-107 37 -143 50 -36 12 -69 26 -75 30 -5 3 -30 13 -55 20 -25 7 -49 16 -55 20
-5 4 -30 13 -55 20 -25 7 -49 16 -55 20 -5 4 -30 13 -55 20 -25 7 -49 16 -55
20 -5 4 -30 12 -55 20 -25 7 -49 17 -54 22 -6 4 -19 8 -31 8 -12 0 -25 4 -31
8 -15 14 -92 35 -106 29 -8 -2 -20 -28 -28 -57 -8 -28 -18 -53 -22 -56 -4 -3
-8 -15 -8 -28 0 -12 -4 -26 -8 -31 -4 -6 -14 -28 -21 -50 -7 -22 -16 -49 -21
-60 -14 -33 -48 -127 -61 -170 -7 -22 -16 -45 -20 -50 -4 -6 -20 -46 -35 -90
-14 -44 -31 -84 -35 -90 -5 -5 -9 -17 -9 -27 0 -10 -4 -26 -10 -36 -5 -9 -19
-46 -31 -82 -12 -36 -25 -69 -30 -75 -5 -5 -9 -19 -9 -31 0 -13 -4 -26 -10
-29 -5 -3 -10 -15 -10 -26 0 -10 -4 -27 -9 -37 -5 -9 -19 -44 -31 -77 -12 -33
-26 -68 -31 -77 -5 -10 -9 -25 -9 -33 0 -8 -4 -23 -9 -33 -5 -9 -19 -44 -31
-77 -12 -33 -26 -69 -30 -80 -19 -44 -63 -172 -67 -195 -3 -14 -9 -29 -13 -35
-4 -5 -19 -41 -33 -80 -78 -213 -74 -206 -120 -183 -17 9 -75 31 -127 49 -52
17 -99 36 -104 40 -6 5 -19 9 -31 9 -12 0 -25 4 -31 8 -5 4 -27 14 -49 21 -42
13 -78 27 -107 42 -10 5 -26 9 -36 9 -10 0 -22 4 -28 8 -5 4 -27 14 -49 21
-22 7 -49 16 -60 21 -11 5 -40 16 -65 24 -87 29 -150 53 -157 59 -3 4 -16 7
-28 7 -12 0 -30 9 -40 20 -15 16 -16 25 -8 43 22 44 41 93 48 117 3 14 10 34
15 45 5 11 17 45 28 75 11 30 36 100 56 155 21 55 47 125 58 155 11 30 24 64
28 75 5 11 16 40 24 65 29 87 53 150 59 157 4 3 7 15 7 25 0 10 4 26 9 36 5 9
19 44 31 77 12 33 26 68 31 77 5 10 9 27 9 37 0 11 4 22 9 25 5 3 11 16 14 28
8 36 63 188 70 195 4 3 7 16 7 28 0 11 4 25 9 30 5 6 21 46 36 90 15 44 31 85
35 90 3 6 13 30 20 55 7 25 16 50 20 55 4 6 13 30 20 55 7 25 16 50 20 55 4 6
12 30 20 55 7 25 17 49 22 55 4 5 8 17 8 27 0 18 4 28 28 75 7 13 12 30 12 38
0 8 5 25 12 38 24 47 28 57 28 75 0 10 4 22 8 27 5 6 15 30 22 55 8 25 16 50
20 55 4 6 13 30 20 55 7 25 16 50 20 55 3 6 12 28 19 50 7 22 16 49 21 60 23
55 42 116 37 121 -3 3 -15 0 -28 -6 -54 -30 -201 -71 -303 -86 -241 -36 -477
14 -642 134 -34 25 -41 35 -37 56 3 15 9 29 14 32 5 3 9 16 9 30 0 13 5 24 10
24 6 0 10 9 10 20 0 11 4 28 9 38 5 9 18 42 29 72 11 30 37 100 57 155 21 55
46 125 57 155 11 30 23 64 28 75 5 11 14 38 21 60 7 22 16 45 19 50 4 6 13 30
20 55 7 25 16 50 20 55 4 6 12 30 20 55 7 25 17 49 22 55 4 5 8 18 8 30 0 12
4 25 8 31 4 5 14 27 21 49 13 42 27 78 42 107 5 10 9 27 9 37 0 11 4 22 8 25
4 3 14 28 22 56 8 28 17 53 21 56 4 2 13 -12 19 -31 6 -19 17 -35 23 -35 22 0
140 83 193 137 58 57 85 103 104 171 23 86 -19 190 -91 227 -58 31 -76 19
-104 -68 -7 -23 -20 -60 -29 -82 -38 -101 -79 -214 -93 -258 -9 -26 -19 -45
-22 -41 -13 13 -32 94 -37 165 -12 144 49 255 159 289 53 16 62 28 97 125 12
33 26 68 31 77 5 10 9 24 9 31 0 7 6 25 13 40 13 29 20 29 115 -4 190 -65 302
-231 302 -447 0 -203 -118 -382 -373 -567 -53 -38 -96 -72 -97 -75 -1 -14 187
-215 270 -288 114 -102 189 -162 200 -162 9 0 82 110 106 163 10 20 21 37 26
37 11 0 10 -26 -1 -48 -5 -9 -14 -30 -21 -47 -7 -16 -16 -38 -21 -47 -5 -10
-9 -26 -9 -36 0 -10 -4 -22 -8 -28 -5 -5 -15 -29 -22 -54 -8 -25 -16 -49 -20
-55 -4 -5 -13 -30 -20 -55 -7 -25 -16 -49 -20 -55 -3 -5 -12 -28 -19 -50 -7
-22 -16 -49 -21 -60 -14 -34 -35 -90 -35 -95 -1 -11 -46 -126 -55 -142 -28
-49 5 -39 114 35 58 39 59 39 85 23 36 -24 262 -133 313 -152 88 -32 203 -63
209 -56 7 7 109 338 109 353 0 5 -8 9 -17 9 -43 0 -363 137 -363 155 0 2 32
52 70 112 39 59 99 166 134 238 61 124 156 367 156 400 0 13 -27 15 -195 15
-107 0 -195 4 -195 9 0 8 20 62 40 106 5 11 14 38 21 60 7 22 16 45 19 50 4 6
12 30 20 55 7 25 17 49 22 55 4 5 8 17 8 27 0 10 4 26 9 36 15 29 29 65 42
107 7 22 17 44 21 50 4 5 8 18 8 30 0 12 4 25 8 30 5 6 15 30 22 55 8 25 16
50 20 55 4 6 13 30 20 55 7 25 16 50 20 55 4 6 13 30 20 55 7 25 16 50 20 55
3 6 12 28 19 50 12 37 43 123 61 170 39 101 70 185 86 235 8 25 19 54 24 65 4
11 18 47 30 80 12 33 26 68 31 77 5 10 9 26 9 36 0 10 4 22 8 28 5 5 15 29 22
54 8 25 16 50 20 55 4 6 13 30 20 55 7 25 15 48 17 53 7 12 38 8 89 -12z
m-896 -2221 c0 -5 -4 -10 -10 -10 -5 0 -10 5 -10 10 0 6 5 10 10 10 6 0 10 -4
10 -10z"/>
<path d="M4611 4873 c-73 -82 -111 -165 -111 -240 0 -81 24 -144 76 -202 67
-74 136 -104 251 -109 68 -3 111 0 156 13 73 20 179 75 175 91 -2 6 -51 54
-110 107 -106 97 -260 261 -327 350 -19 26 -41 47 -47 47 -7 0 -35 -26 -63
-57z"/>
<path d="M4291 10193 c-8 -27 -17 -52 -21 -58 -3 -5 -13 -30 -20 -55 -7 -25
-16 -49 -20 -55 -4 -5 -12 -30 -20 -55 -7 -25 -17 -49 -22 -54 -4 -6 -8 -19
-8 -31 0 -12 -4 -25 -9 -30 -6 -6 -21 -41 -34 -80 -14 -38 -27 -77 -31 -85 -7
-16 -1 -19 109 -60 112 -41 190 -72 207 -81 10 -5 24 -9 32 -9 15 0 145 -49
188 -71 10 -5 24 -9 32 -9 13 0 106 -34 138 -51 10 -5 25 -9 33 -9 8 0 23 -4
33 -9 25 -14 123 -49 155 -57 24 -5 27 -3 27 18 0 13 4 28 8 33 5 6 15 30 22
55 8 25 16 50 20 55 4 6 12 30 20 55 7 25 17 49 22 54 4 6 8 18 8 28 0 10 4
26 9 36 15 29 29 65 42 107 7 22 17 44 21 49 4 6 8 19 8 31 0 12 4 25 9 31 4
5 20 44 35 87 14 42 30 85 36 95 8 15 60 161 60 169 0 2 -242 3 -538 3 l-538
0 -13 -47z"/>
<path d="M3734 8664 c-3 -11 -10 -28 -14 -39 -9 -20 -33 -87 -76 -209 -13 -38
-28 -74 -32 -80 -5 -6 -12 -22 -15 -36 -5 -26 -39 -122 -61 -175 -7 -16 -18
-48 -25 -70 -13 -41 -27 -77 -42 -107 -5 -10 -9 -26 -9 -36 0 -10 -4 -22 -8
-28 -4 -5 -14 -27 -21 -49 -13 -42 -27 -78 -42 -107 -5 -10 -9 -27 -9 -37 0
-11 -4 -23 -10 -26 -5 -3 -10 -16 -10 -29 0 -12 -4 -26 -9 -31 -5 -6 -18 -39
-30 -75 -12 -36 -26 -73 -31 -82 -6 -10 -10 -24 -10 -31 0 -7 -9 -32 -20 -55
-11 -22 -20 -46 -20 -51 0 -6 -7 -27 -16 -48 -20 -44 -22 -50 -63 -168 -18
-49 -36 -98 -41 -107 -6 -10 -10 -25 -10 -33 0 -8 -4 -23 -9 -33 -15 -29 -29
-65 -42 -107 -7 -22 -17 -44 -21 -49 -4 -6 -8 -19 -8 -31 0 -12 -4 -25 -8 -31
-5 -5 -15 -29 -22 -54 -8 -25 -16 -49 -20 -55 -3 -5 -12 -28 -19 -50 -14 -44
-48 -139 -61 -170 -5 -11 -16 -40 -24 -65 -13 -41 -36 -104 -56 -155 -36 -93
-70 -185 -86 -235 -8 -25 -19 -54 -24 -65 -4 -11 -18 -47 -30 -80 -12 -33 -26
-68 -31 -77 -5 -10 -9 -26 -9 -36 0 -10 -4 -22 -8 -28 -5 -5 -15 -29 -22 -54
-8 -25 -16 -49 -20 -55 -3 -5 -12 -28 -19 -50 -7 -22 -16 -49 -21 -60 -30 -74
-50 -130 -50 -141 0 -8 -5 -24 -12 -37 -24 -47 -28 -57 -28 -75 0 -10 -4 -22
-9 -27 -5 -6 -19 -39 -31 -75 -12 -36 -33 -93 -47 -128 -14 -35 -23 -64 -21
-66 34 -23 60 -36 71 -36 16 0 145 -49 189 -71 10 -5 24 -9 32 -9 13 0 106
-34 138 -51 10 -5 26 -9 36 -9 10 0 22 -3 25 -7 7 -6 70 -30 157 -59 25 -8 54
-19 65 -24 11 -4 47 -18 80 -30 33 -12 77 -29 97 -37 48 -20 61 -10 84 65 9
31 20 62 24 67 3 6 13 30 20 55 7 25 16 50 20 55 4 6 13 30 20 55 7 25 16 50
20 55 4 6 12 30 20 55 7 25 17 49 22 55 4 5 8 16 8 25 0 9 9 35 20 58 11 22
20 49 20 60 0 10 4 22 9 27 5 6 19 39 31 75 23 67 65 180 80 215 5 11 14 38
21 60 6 22 15 45 19 50 3 6 12 30 20 55 7 25 17 49 22 54 4 6 8 18 8 28 0 10
4 26 9 36 15 29 29 65 42 107 7 22 17 44 21 49 4 6 8 19 8 31 0 12 4 25 8 31
5 5 15 29 22 54 8 25 16 50 20 55 4 6 13 30 20 55 7 25 16 50 20 55 3 6 12 28
19 50 7 22 16 49 21 60 5 11 16 40 24 65 14 42 39 110 101 275 14 39 33 90 41
115 8 25 19 54 24 65 4 11 18 47 30 80 12 33 26 68 31 77 5 10 9 26 9 36 0 10
4 22 8 28 5 5 15 29 22 54 8 25 16 50 20 55 3 6 12 28 19 50 7 22 16 49 21 60
30 74 50 130 50 141 0 8 4 22 9 32 18 34 71 177 71 192 0 9 4 20 8 25 5 6 19
39 32 75 13 36 29 79 36 95 7 17 27 73 44 125 18 52 36 99 41 104 5 6 9 19 9
31 0 12 4 25 8 31 4 5 14 27 21 49 17 54 51 145 63 172 14 28 7 37 -44 53 -24
7 -47 17 -53 22 -5 4 -16 8 -26 8 -17 0 -143 47 -191 71 -10 5 -26 9 -36 9
-10 0 -22 4 -28 8 -5 5 -29 15 -54 22 -25 8 -49 16 -55 20 -5 3 -28 12 -50 19
-42 13 -136 47 -170 61 -62 26 -174 63 -202 67 -26 4 -34 1 -39 -13z"/>
</g>
</svg>
